<svg xmlns="http://www.w3.org/2000/svg" 
xmlns:xlink="http://www.w3.org/1999/xlink" version="1.1" viewBox="0 0 512 512" 
style="enable-background:new 0 0 512 512;" xml:space="preserve" width="60px" height="100px"><g id="_x30_6_Smart_Energy_x2C__
Lightbulb_x2C__Wifi_x2C__Bulb_x2C__Inspiration"><g><g><g><path style="fill:#FFFFFF;" 
d="M301.003,441.073v14.961c0,24.852-20.151,45.003-45.003,45.003s-45.003-20.151-45.003-45.003      
v-14.961C229.772,441.073,280.617,441.073,301.003,441.073z"/><path style="fill:#FFFFFF;" 
d="M254.785,10.963C167.259,11.61,96.009,83.398,95.979,170.934      
c-0.02,54.864,27.572,103.274,69.636,132.121c15.828,10.847,25.37,28.727,25.37,47.912v0.05h130.029v-0.04     
 c0-19.284,9.692-37.144,25.579-48.071c41.935-28.847,69.427-77.167,69.427-131.922      
 C416.021,82.203,343.725,10.305,254.785,10.963z"/>
 <path style="fill:#FFFFFF;" 
 d="M326.015,351.017c13.806,0,25.002,11.196,25.002,25.002c0,13.817-11.195,25.002-25.002,25.002      
 c-22.6,0-76.87,0-140.03,0c-13.806,0-25.002-11.196-25.002-25.002c0-13.817,11.195-25.002,25.002-25.002      
 c43.436,0,93.389,0,135.029,0H326.015z"/>
 <path style="fill:#CDDCF9;" d="M296.003,401.02c13.816,0,25.012,11.196,25.012,25.002c0,13.813
 -11.186,25.012-25.012,25.012      h-80.006c-13.816,0-25.012-11.196-25.012-25.012c0-13.806,11.187-25.002,25.012-25.002H296.003z"/>
 <path style="fill:#CDDCF9;" d="M291.002,200.996v45.003c0,8.118-2.63,16.007-7.501,22.502      c-4.772,6.35-7.501,14.236-7.501,22.502v60.014h-40.003v-60.014c0-8.108-2.63-16.007-7.501-22.502      c-4.829-6.426-7.501-14.309-7.501-22.502v-45.003H291.002z"/></g></g><g><g><g id="XMLID_190_"><path style="fill:#487FE9;" d="M321.01,360.975H190.99c-5.501,0-9.961-4.46-9.961-9.961c0-15.871-7.867-30.712-21.043-39.747       c-46.337-31.77-73.99-84.233-73.971-140.34c0.033-93.007,75.712-169.232,168.7-169.92       c94.413-0.708,171.27,75.474,171.27,169.981c0,55.972-27.568,108.355-73.744,140.124c-13.319,9.164-21.27,24.066-21.27,39.861       C330.971,356.473,326.511,360.975,321.01,360.975z M200.22,341.054h111.571c2.78-18.561,13.243-35.404,29.158-46.354       c40.772-28.052,65.114-74.299,65.114-123.712c0-83.269-67.701-150.695-151.201-150.059       c-82.09,0.607-148.897,67.899-148.927,150.005c-0.017,49.532,24.4,95.851,65.315,123.903       C187.072,305.685,197.468,322.489,200.22,341.054z"/></g><g id="XMLID_189_"><path style="fill:#487FE9;" d="M326.011,410.983H185.989c-19.28,0-34.964-15.684-34.964-34.964s15.684-34.965,34.964-34.965       h140.022c19.28,0,34.964,15.685,34.964,34.965S345.291,410.983,326.011,410.983z M185.989,360.975       c-8.295,0-15.042,6.749-15.042,15.043s6.748,15.042,15.042,15.042h140.022c8.295,0,15.042-6.748,15.042-15.042       s-6.748-15.043-15.042-15.043H185.989z"/></g><g id="XMLID_187_"><path style="fill:#487FE9;" d="M296.006,460.99h-80.012c-19.28,0-34.965-15.684-34.965-34.964       c0-19.28,15.685-34.965,34.965-34.965h80.012c19.28,0,34.965,15.685,34.965,34.965       C330.971,445.306,315.286,460.99,296.006,460.99z M215.994,410.983c-8.295,0-15.043,6.749-15.043,15.043       s6.749,15.042,15.043,15.042h80.012c8.295,0,15.043-6.748,15.043-15.042s-6.749-15.043-15.043-15.043H215.994z"/></g><g id="XMLID_121_"><path style="fill:#487FE9;" d="M256,510.998c-30.31,0-54.968-24.658-54.968-54.968v-5.001c0-5.501,4.46-9.961,9.961-9.961       h90.013c5.501,0,9.961,4.46,9.961,9.961v5.001C310.968,486.34,286.31,510.998,256,510.998z M221.304,460.99       c2.416,16.984,17.054,30.086,34.696,30.086s32.279-13.102,34.696-30.086H221.304z"/></g><g id="XMLID_120_"><path style="fill:#487FE9;" d="M256,160.943c-5.488,0-9.961-4.449-9.961-9.961c0-5.624,4.596-9.956,9.957-9.956       c5.575,0,9.965,4.555,9.965,9.956C265.961,156.371,261.587,160.943,256,160.943z"/></g><g id="XMLID_119_"><path style="fill:#487FE9;" d="M279.342,125.179c-13.397-11.589-33.313-11.567-46.684,0c-4.162,3.599-10.451,3.143-14.05-1.016       c-3.599-4.16-3.145-10.451,1.016-14.05c20.887-18.069,51.907-18.033,72.753,0c4.16,3.599,4.615,9.89,1.016,14.05       C289.798,128.317,283.51,128.784,279.342,125.179z"/></g><g id="XMLID_81_"><path style="fill:#487FE9;" d="M299.49,87.116c-24.962-21.596-62.069-21.553-86.981,0c-4.16,3.599-10.451,3.145-14.05-1.016       c-3.599-4.16-3.145-10.451,1.016-14.05c32.451-28.075,80.663-28.019,113.05,0c4.16,3.599,4.615,9.89,1.016,14.05       C309.946,90.254,303.659,90.72,299.49,87.116z"/></g><g id="XMLID_79_"><path style="fill:#487FE9;" d="M276.003,360.975h-40.007c-5.501,0-9.961-4.46-9.961-9.961v-60.009       c0-5.922-1.956-11.791-5.509-16.527c-6.121-8.163-9.493-18.278-9.493-28.48v-45.007c0-5.501,4.46-9.961,9.961-9.961h70.01       c5.501,0,9.961,4.46,9.961,9.961v45.007c0,10.202-3.372,20.317-9.493,28.48c-3.552,4.736-5.509,10.605-5.509,16.527v60.009       C285.964,356.515,281.504,360.975,276.003,360.975z M245.957,341.054h20.085v-50.048c0-10.204,3.372-20.319,9.493-28.48       c3.552-4.736,5.509-10.606,5.509-16.527v-35.046h-50.088v35.046c0,5.921,1.956,11.791,5.509,16.527      
 c6.121,8.161,9.493,18.276,9.493,28.48V341.054z"/></g></g></g></g></g><g id="Layer_1"/></svg>